<svg xmlns="http://www.w3.org/2000/svg" viewBox="0 0 400 400">
  <defs>
    <linearGradient id="brain-gradient" x1="0%" y1="0%" x2="100%" y2="100%">
      <stop offset="0%" stop-color="#00c6ff" />
      <stop offset="100%" stop-color="#0072ff" />
    </linearGradient>
    <filter id="glow" x="-20%" y="-20%" width="140%" height="140%">
      <feGaussianBlur stdDeviation="8" result="blur" />
      <feComposite in="SourceGraphic" in2="blur" operator="over" />
    </filter>
  </defs>
  
  <!-- Brain outline -->
  <path d="M200,50 C120,50 60,110 60,190 C60,270 120,330 200,330 C280,330 340,270 340,190 C340,110 280,50 200,50 Z" 
        fill="url(#brain-gradient)" opacity="0.8" filter="url(#glow)" />
  
  <!-- Left hemisphere details -->
  <path d="M200,50 C120,50 60,110 60,190 C60,270 120,330 200,330" 
        fill="none" stroke="#0072ff" stroke-width="3" stroke-linecap="round" />
  
  <!-- Right hemisphere details -->
  <path d="M200,50 C280,50 340,110 340,190 C340,270 280,330 200,330" 
        fill="none" stroke="#ffffff" stroke-width="3" stroke-linecap="round" stroke-dasharray="5,5" />
  
  <!-- Neural connections - left side -->
  <g opacity="0.8">
    <circle cx="120" cy="120" r="10" fill="#00c6ff" />
    <circle cx="100" cy="180" r="10" fill="#00c6ff" />
    <circle cx="120" cy="240" r="10" fill="#00c6ff" />
    <circle cx="160" cy="280" r="10" fill="#00c6ff" />
    
    <line x1="120" y1="120" x2="100" y2="180" stroke="#00c6ff" stroke-width="2" />
    <line x1="100" y1="180" x2="120" y2="240" stroke="#00c6ff" stroke-width="2" />
    <line x1="120" y1="240" x2="160" y2="280" stroke="#00c6ff" stroke-width="2" />
    <line x1="120" y1="120" x2="160" y2="280" stroke="#00c6ff" stroke-width="1" stroke-dasharray="3,3" />
  </g>
  
  <!-- Neural connections - right side -->
  <g opacity="0.7">
    <circle cx="280" cy="120" r="10" fill="#ffffff" />
    <circle cx="300" cy="180" r="10" fill="#ffffff" />
    <circle cx="280" cy="240" r="10" fill="#ffffff" />
    <circle cx="240" cy="280" r="10" fill="#ffffff" />
    
    <line x1="280" y1="120" x2="300" y2="180" stroke="#ffffff" stroke-width="2" />
    <line x1="300" y1="180" x2="280" y2="240" stroke="#ffffff" stroke-width="2" />
    <line x1="280" y1="240" x2="240" y2="280" stroke="#ffffff" stroke-width="2" />
    <line x1="280" y1="120" x2="240" y2="280" stroke="#ffffff" stroke-width="1" stroke-dasharray="3,3" />
  </g>
  
  <!-- Cross-hemisphere connections -->
  <g opacity="0.5">
    <line x1="120" y1="120" x2="280" y2="120" stroke="#80e5ff" stroke-width="1" />
    <line x1="100" y1="180" x2="300" y2="180" stroke="#80e5ff" stroke-width="1" />
    <line x1="120" y1="240" x2="280" y2="240" stroke="#80e5ff" stroke-width="1" />
    <line x1="160" y1="280" x2="240" y2="280" stroke="#80e5ff" stroke-width="1" />
  </g>
  
  <!-- Glowing points -->
  <g>
    <circle cx="200" cy="100" r="3" fill="#ffffff">
      <animate attributeName="opacity" values="0.3;1;0.3" dur="2s" repeatCount="indefinite" />
    </circle>
    <circle cx="150" cy="150" r="3" fill="#ffffff">
      <animate attributeName="opacity" values="0.3;1;0.3" dur="3s" repeatCount="indefinite" />
    </circle>
    <circle cx="250" cy="150" r="3" fill="#ffffff">
      <animate attributeName="opacity" values="0.3;1;0.3" dur="2.5s" repeatCount="indefinite" />
    </circle>
    <circle cx="200" cy="200" r="3" fill="#ffffff">
      <animate attributeName="opacity" values="0.3;1;0.3" dur="1.8s" repeatCount="indefinite" />
    </circle>
    <circle cx="150" cy="250" r="3" fill="#ffffff">
      <animate attributeName="opacity" values="0.3;1;0.3" dur="2.2s" repeatCount="indefinite" />
    </circle>
    <circle cx="250" cy="250" r="3" fill="#ffffff">
      <animate attributeName="opacity" values="0.3;1;0.3" dur="2.7s" repeatCount="indefinite" />
    </circle>
  </g>
</svg>

