<svg width="200" height="200" viewBox="0 0 200 200" fill="none" xmlns="http://www.w3.org/2000/svg">
  <!-- Background glow -->
  <circle cx="100" cy="100" r="80" fill="#0a192f" />
  <circle cx="100" cy="100" r="75" fill="#0a192f" />
  
  <!-- Left hemisphere - biological brain -->
  <path d="M100 40C100 40 85 45 80 50C75 55 70 65 70 75C70 85 75 95 80 100C85 105 90 110 90 120C90 130 85 140 75 145C65 150 60 160 60 170C60 180 70 185 80 185C90 185 95 175 100 170" 
        stroke="#4FD1C5" stroke-width="3" fill="none" />
  <path d="M85 55C85 55 75 60 75 70C75 80 85 85 85 95C85 105 75 110 75 120C75 130 85 135 85 145" 
        stroke="#4FD1C5" stroke-width="2" fill="none" />
  <path d="M90 75C90 75 80 80 80 90C80 100 90 105 90 115" 
        stroke="#4FD1C5" stroke-width="2" fill="none" />
  
  <!-- Right hemisphere - circuit brain -->
  <path d="M100 40C100 40 115 45 120 50C125 55 130 65 130 75C130 85 125 95 120 100C115 105 110 110 110 120C110 130 115 140 125 145C135 150 140 160 140 170C140 180 130 185 120 185C110 185 105 175 100 170" 
        stroke="#4FD1C5" stroke-width="3" fill="none" />
  
  <!-- Circuit patterns on right side -->
  <line x1="110" y1="50" x2="130" y2="50" stroke="#4FD1C5" stroke-width="1.5" />
  <line x1="120" y1="50" x2="120" y2="60" stroke="#4FD1C5" stroke-width="1.5" />
  <line x1="120" y1="60" x2="135" y2="60" stroke="#4FD1C5" stroke-width="1.5" />
  <line x1="135" y1="60" x2="135" y2="75" stroke="#4FD1C5" stroke-width="1.5" />
  
  <line x1="110" y1="80" x2="125" y2="80" stroke="#4FD1C5" stroke-width="1.5" />
  <line x1="125" y1="80" x2="125" y2="95" stroke="#4FD1C5" stroke-width="1.5" />
  <line x1="125" y1="95" x2="115" y2="95" stroke="#4FD1C5" stroke-width="1.5" />
  
  <line x1="115" y1="110" x2="130" y2="110" stroke="#4FD1C5" stroke-width="1.5" />
  <line x1="130" y1="110" x2="130" y2="125" stroke="#4FD1C5" stroke-width="1.5" />
  <line x1="130" y1="125" x2="120" y2="125" stroke="#4FD1C5" stroke-width="1.5" />
  
  <line x1="125" y1="140" x2="140" y2="140" stroke="#4FD1C5" stroke-width="1.5" />
  <line x1="140" y1="140" x2="140" y2="155" stroke="#4FD1C5" stroke-width="1.5" />
  <line x1="140" y1="155" x2="125" y2="155" stroke="#4FD1C5" stroke-width="1.5" />
  <line x1="125" y1="155" x2="125" y2="170" stroke="#4FD1C5" stroke-width="1.5" />
  
  <!-- Circuit nodes -->
  <circle cx="120" cy="50" r="2" fill="#4FD1C5" />
  <circle cx="135" cy="60" r="2" fill="#4FD1C5" />
  <circle cx="135" cy="75" r="2" fill="#4FD1C5" />
  <circle cx="125" cy="80" r="2" fill="#4FD1C5" />
  <circle cx="125" cy="95" r="2" fill="#4FD1C5" />
  <circle cx="115" cy="95" r="2" fill="#4FD1C5" />
  <circle cx="130" cy="110" r="2" fill="#4FD1C5" />
  <circle cx="130" cy="125" r="2" fill="#4FD1C5" />
  <circle cx="120" cy="125" r="2" fill="#4FD1C5" />
  <circle cx="140" cy="140" r="2" fill="#4FD1C5" />
  <circle cx="140" cy="155" r="2" fill="#4FD1C5" />
  <circle cx="125" cy="155" r="2" fill="#4FD1C5" />
  <circle cx="125" cy="170" r="2" fill="#4FD1C5" />
  
  <!-- Glow effect -->
  <circle cx="100" cy="100" r="70" stroke="#4FD1C5" stroke-width="1" stroke-opacity="0.3" fill="none">
    <animate attributeName="r" from="70" to="75" dur="3s" repeatCount="indefinite" />
    <animate attributeName="stroke-opacity" from="0.3" to="0.1" dur="3s" repeatCount="indefinite" />
  </circle>
  <circle cx="100" cy="100" r="65" stroke="#4FD1C5" stroke-width="1" stroke-opacity="0.5" fill="none">
    <animate attributeName="r" from="65" to="70" dur="3s" begin="1s" repeatCount="indefinite" />
    <animate attributeName="stroke-opacity" from="0.5" to="0.2" dur="3s" begin="1s" repeatCount="indefinite" />
  </circle>
</svg>

