<svg xmlns="http://www.w3.org/2000/svg" viewBox="0 0 200 200">
  <g>
    <path d="M100,20 C60,20 30,50 30,90 C30,130 60,160 100,160 C140,160 170,130 170,90 C170,50 140,20 100,20 Z" fill="#3498db" opacity="0.8" />
    <path d="M100,20 C60,20 30,50 30,90 C30,130 60,160 100,160" fill="none" stroke="#2980b9" stroke-width="4" />
    <path d="M100,20 C140,20 170,50 170,90 C170,130 140,160 100,160" fill="none" stroke="#e0e0e0" stroke-width="4" />
    
    <!-- Left side connections -->
    <circle cx="70" cy="70" r="8" fill="#2980b9" />
    <circle cx="50" cy="100" r="8" fill="#2980b9" />
    <circle cx="70" cy="130" r="8" fill="#2980b9" />
    
    <!-- Right side connections -->
    <circle cx="130" cy="70" r="8" fill="#e0e0e0" />
    <circle cx="150" cy="100" r="8" fill="#e0e0e0" />
    <circle cx="130" cy="130" r="8" fill="#e0e0e0" />
    
    <!-- Connections -->
    <path d="M70,70 L130,70" stroke="#fff" stroke-width="2" />
    <path d="M50,100 L150,100" stroke="#fff" stroke-width="2" />
    <path d="M70,130 L130,130" stroke="#fff" stroke-width="2" />
    
    <path d="M70,70 L50,100 L70,130" stroke="#2980b9" stroke-width="2" />
    <path d="M130,70 L150,100 L130,130" stroke="#e0e0e0" stroke-width="2" />
  </g>
</svg>

